<svg width="32" height="33" viewBox="0 0 32 33" fill="none" xmlns="http://www.w3.org/2000/svg">
<rect width="32" height="33" rx="16" fill="#ED1B3E"/>
<path d="M23.5002 22.8333H25.1668V24.5H6.8335V22.8333H8.50016V10.3333C8.50016 10.1123 8.58796 9.90036 8.74424 9.74408C8.90052 9.5878 9.11248 9.5 9.3335 9.5H17.6668C17.8878 9.5 18.0998 9.5878 18.2561 9.74408C18.4124 9.90036 18.5002 10.1123 18.5002 10.3333V22.8333H20.1668V14.5H22.6668C22.8878 14.5 23.0998 14.5878 23.2561 14.7441C23.4124 14.9004 23.5002 15.1123 23.5002 15.3333V22.8333ZM11.8335 16.1667V17.8333H15.1668V16.1667H11.8335ZM11.8335 12.8333V14.5H15.1668V12.8333H11.8335Z" fill="white"/>
</svg>
